Coordinates
version=1
nRows=19
nColumns=33
inDegrees=yes

Units are S.I. units (second, meters, Newtons, ...)
Angles are in degrees.

endheader
time	ground_thorax_rot_x	ground_thorax_rot_y	ground_thorax_rot_z	ground_thorax_tx	ground_thorax_ty	ground_thorax_tz	clav_prot_r	clav_elev_r	scapula_abduction_r	scapula_elevation_r	scapula_upward_rot_r	scapula_winging_r	shoulder_elv_r	plane_of_elev_r	axial_rot_r	elbow_flexion_r	pro_sup_r	wrist_flex_r	wrist_dev_r	clav_prot_l	clav_elev_l	scapula_abduction_l	scapula_elevation_l	scapula_upward_rot_l	scapula_winging_l	shoulder_elv_l	plane_of_elev_l	axial_rot_l	elbow_flexion_l	pro_sup_l	wrist_flex_l	wrist_dev_l	
2.9600	-38.099325	-7.446405	14.270499	-102.257262	773.573274	11.097270	-6.315850	-45.000000	45.000000	-45.000000	20.736349	-3710.889920	-1017.260832	20.618987	-180.000000	1806.816072	-116.700153	13.855701	10.620889	19.336409	39.518594	-44.958905	-41.448542	-34.722052	438.732227	-819.880725	134.830430	172.560330	368.955591	25.033373	8.265726	-18.778479	
2.9700	-38.409250	-7.691920	14.357256	-103.515746	773.655822	10.030307	-6.252403	-45.000000	45.000000	-45.000000	20.588453	-3711.011577	-1017.186014	20.624890	-180.000000	1806.926427	-117.425583	13.913361	10.732487	19.501512	39.839310	-44.926796	-41.865641	-35.175614	438.802160	-819.644070	134.674068	173.343416	368.749078	24.745685	8.358763	-18.953343	
2.9800	-38.607465	-7.841294	14.444125	-105.130632	774.209948	9.425528	-6.203741	-45.000000	45.000000	-45.000000	20.500918	-3711.142742	-1017.082659	20.661865	-180.000000	1807.012942	-118.119222	13.961659	10.831850	19.672754	40.107306	-44.867729	-42.278145	-35.670882	438.823400	-819.422821	134.505314	174.004524	368.667532	24.303141	8.425844	-19.053326	
2.9900	-38.709259	-7.897124	14.517724	-107.055029	775.161544	9.216277	-6.152632	-45.000000	45.000000	-45.000000	20.477422	-3711.263184	-1016.944548	20.716175	-180.000000	1807.075160	-118.771924	14.005562	10.922988	19.767899	40.319143	-44.779979	-42.663249	-36.112865	438.803890	-819.242312	134.375744	174.475590	368.705705	23.751821	8.481217	-19.095145	
3.0000	-38.810953	-7.988196	14.624228	-109.053177	776.160308	9.027434	-6.094006	-45.000000	45.000000	-45.000000	20.413449	-3711.390794	-1016.804769	20.773750	-180.000000	1807.131141	-119.415798	14.049163	11.014946	19.887667	40.522054	-44.647908	-43.059929	-36.592550	438.766500	-819.048262	134.244372	174.896094	368.746305	23.141180	8.510424	-19.111185	
3.0100	-38.908967	-8.071072	14.715908	-111.118318	777.213200	8.851380	-6.013752	-45.000000	45.000000	-45.000000	20.360741	-3711.494994	-1016.649854	20.820761	-180.000000	1807.172708	-120.047628	14.100954	11.111596	19.901307	40.700925	-44.489520	-43.423948	-36.949724	438.733452	-818.886841	134.179367	175.175949	368.804660	22.527759	8.550544	-19.128100	
3.0200	-39.002045	-8.169897	14.817009	-113.244907	778.325663	8.683083	-5.923537	-45.000000	45.000000	-45.000000	20.284912	-3711.589630	-1016.489988	20.869273	-180.000000	1807.205304	-120.684080	14.157389	11.211653	19.890103	40.858608	-44.299126	-43.769972	-37.272803	438.702451	-818.724145	134.137391	175.391243	368.868150	21.895639	8.583558	-19.138189	
3.0300	-39.086972	-8.253683	14.899533	-115.428508	779.501934	8.519890	-5.816512	-45.000000	45.000000	-45.000000	20.214198	-3711.659727	-1016.315584	20.917850	-180.000000	1807.229996	-121.326347	14.222008	11.318310	19.803276	40.993273	-44.109708	-44.072470	-37.498982	438.690501	-818.587354	134.151305	175.509169	368.943499	21.264766	8.631040	-19.153815	
3.0400	-39.154549	-8.372035	15.019313	-117.664740	780.745073	8.359828	-5.692286	-45.000000	44.999999	-45.000000	20.047403	-3711.721825	-1016.144618	20.987185	-180.000000	1807.247116	-122.007690	14.291221	11.428805	19.758820	41.075319	-43.912484	-44.355593	-37.831587	438.682711	-818.398410	134.131424	175.714301	369.006739	20.569554	8.671013	-19.156398	
3.0500	-39.211962	-8.463582	15.114033	-119.949122	782.057221	8.201246	-5.554370	-45.000000	44.999999	-45.000000	19.881675	-3711.762281	-1015.961556	21.062465	-180.000000	1807.252432	-122.715178	14.368844	11.544505	19.666252	41.130238	-43.739619	-44.582050	-38.087743	438.716981	-818.227039	134.141945	175.861264	369.070812	19.852391	8.724962	-19.162610	
3.0600	-39.258731	-8.545191	15.195724	-122.277257	783.439077	8.042228	-5.419754	-45.000000	44.999998	-45.000000	19.704693	-3711.792730	-1015.776677	21.152845	-180.000000	1807.250916	-123.443359	14.452043	11.663799	19.590253	41.158778	-43.575242	-44.762602	-38.322970	438.795147	-818.046270	134.139821	175.998947	369.124460	19.102410	8.771663	-19.163508	
3.0700	-39.300274	-8.577033	15.220685	-124.645436	784.889538	7.881478	-5.298411	-45.000000	44.999997	-45.000000	19.598541	-3711.808393	-1015.575451	21.247805	-180.000000	1807.240993	-124.160146	14.540546	11.784804	19.479131	41.185454	-43.434241	-44.880496	-38.416413	438.939484	-817.905315	134.163522	176.019305	369.180085	18.366048	8.817583	-19.170365	
3.0800	-39.331458	-8.599112	15.228557	-127.051204	786.405396	7.718086	-5.187003	-45.000000	44.999995	-45.000000	19.496354	-3711.817789	-1015.372198	21.353239	-180.000000	1807.218010	-124.859910	14.636281	11.906051	19.387420	41.179446	-43.302440	-44.955891	-38.496600	439.127179	-817.752272	134.171180	176.041654	369.231052	17.617021	8.852550	-19.175834	
3.0900	-39.354272	-8.604330	15.211601	-129.492224	787.981535	7.551781	-5.083845	-45.000000	44.999990	-45.000000	19.428925	-3711.818748	-1015.155652	21.459218	-180.000000	1807.184064	-125.523625	14.732856	12.022416	19.289701	41.146763	-43.184409	-44.989334	-38.532863	439.361196	-817.606601	134.178362	176.010532	369.283318	16.871490	8.877220	-19.183036	
3.1000	-39.368231	-8.623572	15.199816	-131.965126	789.610764	7.383055	-4.980321	-45.000000	44.999982	-45.000000	19.341366	-3711.815053	-1014.939890	21.567639	-180.000000	1807.141089	-126.151622	14.835236	12.137411	19.210995	41.066462	-43.075028	-45.000000	-38.616997	439.615573	-817.434672	134.170663	176.011525	369.331990	16.104245	8.893262	-19.188077	
3.1100	-39.379474	-8.642166	15.181303	-134.462671	791.283993	7.213488	-4.866880	-45.000000	44.999968	-45.000000	19.242262	-3711.804987	-1014.723383	21.674162	-180.000000	1807.088508	-126.738215	14.947663	12.254158	19.120077	40.974992	-42.969732	-45.000000	-38.696154	439.875855	-817.258392	134.166267	176.014201	369.378776	15.328456	8.915046	-19.196141	
3.1200	-39.390186	-8.661052	15.160671	-136.974876	792.991085	7.045326	-4.743354	-45.000000	44.999943	-45.000000	19.124397	-3711.792513	-1014.511966	21.778195	-180.000000	1807.025892	-127.288164	15.074263	12.374641	19.018425	40.877475	-42.876103	-45.000000	-38.784742	440.129090	-817.080905	134.175026	176.032801	369.428021	14.546304	8.945647	-19.209177	
3.1300	-39.392734	-8.679891	15.141938	-139.488936	794.721755	6.881088	-4.614013	-45.000000	44.999899	-45.000000	19.003568	-3711.773673	-1014.290214	21.881198	-180.000000	1806.965163	-127.796684	15.197821	12.488777	18.914154	40.773405	-42.779729	-45.000000	-38.887444	440.378994	-816.902220	134.176441	176.028948	369.477870	13.771068	8.970204	-19.223271	
3.1400	-39.390595	-8.689456	15.115176	-141.993111	796.466785	6.722548	-4.491289	-45.000000	44.999818	-45.000000	18.905952	-3711.752356	-1014.062128	21.980041	-180.000000	1806.908852	-128.261784	15.317858	12.595710	18.811297	40.664291	-42.690976	-45.000000	-38.991472	440.630443	-816.734418	134.181553	175.978681	369.531068	13.017395	8.981282	-19.238908	
